<?xml version="1.0"?>
<svg xmlns:rdf="http://www.w3.org/1999/02/22-rdf-syntax-ns#" xmlns="http://www.w3.org/2000/svg" xmlns:cc="http://web.resource.org/cc/" xmlns:xlink="http://www.w3.org/1999/xlink" xmlns:dc="http://purl.org/dc/elements/1.1/" xmlns:svg="http://www.w3.org/2000/svg" id="svg1" height="48pt" width="48pt">
  <defs id="defs3">
    <linearGradient id="linearGradient654" y1=".40619" x2="1.7453" x1="-.10728" y2=".42182">
      <stop id="stop585" stop-color="#fff" offset="0"/>
      <stop id="stop586" stop-color="#fff" stop-opacity="0" offset="1"/>
    </linearGradient>
  </defs>
  <path id="path868" d="m51.538 31.489a19.033 19.581 0 1 0 -38.066 0 19.033 19.581 0 1 0 38.066 0z" fill-rule="evenodd" fill-opacity=".3871" transform="matrix(1.362 0 0 1.3128 -11.003 -10.33)" stroke-width="0" fill="#040000"/>
  <path id="path867" d="m51.538 31.489a19.033 19.581 0 1 0 -38.066 0 19.033 19.581 0 1 0 38.066 0z" fill-rule="evenodd" transform="matrix(1.362 0 0 1.3128 -14.982 -11.823)" stroke="#000" stroke-width="1.4841" fill="url(#linearGradient654)"/>
  <rect id="rect867" transform="matrix(.0095486 .99995 -.99995 .0095486 0 0)" fill-rule="evenodd" fill-opacity=".75" ry=".44765" height="4.5154" width="2.2618" stroke="#000" y="-10.326" x="27.806" stroke-width=".36129" fill="#0a0608"/>
  <rect id="rect869" transform="matrix(.0095486 .99995 -.99995 .0095486 0 0)" fill-rule="evenodd" fill-opacity=".75" ry=".44765" height="4.5154" width="2.2618" stroke="#000" y="-10.326" x="31.252" stroke-width=".36129" fill="#0a0608"/>
  <rect id="rect870" fill-rule="evenodd" fill-opacity=".75" ry=".44765" height="4.5154" width="2.2619" stroke="#000" y="8.7426" x="25.558" stroke-width=".36129" fill="#0a0608"/>
  <rect id="rect871" fill-rule="evenodd" fill-opacity=".75" ry=".44765" height="4.5154" width="2.2619" stroke="#000" y="8.7426" x="29.005" stroke-width=".36129" fill="#0a0608"/>
  <rect id="rect872" fill-rule="evenodd" fill-opacity=".75" ry=".44765" height="4.5154" width="2.2619" stroke="#000" y="46.966" x="26.342" stroke-width=".36129" fill="#0a0608"/>
  <rect id="rect873" fill-rule="evenodd" fill-opacity=".75" ry=".44765" height="4.5154" width="2.2619" stroke="#000" y="46.966" x="29.788" stroke-width=".36129" fill="#0a0608"/>
  <rect id="rect874" transform="matrix(.0095486 .99995 -.99995 .0095486 0 0)" fill-rule="evenodd" fill-opacity=".75" ry=".44765" height="4.5154" width="2.2618" stroke="#000" y="-52.152" x="28.049" stroke-width=".36129" fill="#0a0608"/>
  <rect id="rect875" transform="matrix(.0095486 .99995 -.99995 .0095486 0 0)" fill-rule="evenodd" fill-opacity=".75" ry=".44765" height="4.5154" width="2.2618" stroke="#000" y="-52.152" x="31.495" stroke-width=".36129" fill="#0a0608"/>
  <path id="path878" d="m44.363 2.2659c-3.742 3.9471-12.378 16.738-15.5 21.919-2.526 4.745-4.256 7.576-4.447 12.371 3.668-2.393 5.423-4.408 8.197-9.573 2.824-4.964 10.268-19.451 11.75-24.717z" fill-rule="evenodd" fill-opacity=".75" stroke="#000" stroke-width=".93115pt" fill="#060000"/>
  <path id="path879" d="m48.607 25.363c-4.155 0.13-15.621 2.326-20.05 3.408-3.865 1.16-6.299 1.738-8.855 4.113 3.32 0.634 5.352 0.488 9.574-0.762 4.147-1.121 15.796-4.799 19.331-6.759z" fill-rule="evenodd" fill-opacity=".75" stroke="#000" stroke-width=".69347pt" fill="#060000"/>
  <metadata>
    <rdf:RDF>
      <cc:Work>
        <dc:format>image/svg+xml</dc:format>
        <dc:type rdf:resource="http://purl.org/dc/dcmitype/StillImage"/>
        <cc:license rdf:resource="http://creativecommons.org/licenses/publicdomain/"/>
        <dc:publisher>
          <cc:Agent rdf:about="http://openclipart.org/">
            <dc:title>Openclipart</dc:title>
          </cc:Agent>
        </dc:publisher>
        <dc:title>analog clock</dc:title>
        <dc:date>2008-02-04T18:29:41</dc:date>
        <dc:description>analog, analog, clip art, clipart, clock, clock, image, media, png, public domain, svg, time, time, </dc:description>
        <dc:source>http://openclipart.org/detail/12597/analog-clock-by-anonymous-12597</dc:source>
        <dc:creator>
          <cc:Agent>
            <dc:title>Anonymous</dc:title>
          </cc:Agent>
        </dc:creator>
        <dc:subject>
          <rdf:Bag>
            <rdf:li>analog</rdf:li>
            <rdf:li>clip art</rdf:li>
            <rdf:li>clipart</rdf:li>
            <rdf:li>clock</rdf:li>
            <rdf:li>image</rdf:li>
            <rdf:li>media</rdf:li>
            <rdf:li>png</rdf:li>
            <rdf:li>public domain</rdf:li>
            <rdf:li>svg</rdf:li>
            <rdf:li>time</rdf:li>
          </rdf:Bag>
        </dc:subject>
      </cc:Work>
      <cc:License rdf:about="http://creativecommons.org/licenses/publicdomain/">
        <cc:permits rdf:resource="http://creativecommons.org/ns#Reproduction"/>
        <cc:permits rdf:resource="http://creativecommons.org/ns#Distribution"/>
        <cc:permits rdf:resource="http://creativecommons.org/ns#DerivativeWorks"/>
      </cc:License>
    </rdf:RDF>
  </metadata>
</svg>
