<svg xmlns="http://www.w3.org/2000/svg" width="72" height="72" fill="none" viewBox="0 0 72 72">
    <rect width="72" height="72" fill="url(#paint0_linear)" rx="36"/>
    <path fill="url(#paint1_linear)" d="M56.22 16H16.249c-.69 0-1.249.558-1.249 1.248v29.953c0 .69.559 1.248 1.249 1.248h39.97c.691 0 1.25-.558 1.25-1.248V17.248c0-.69-.559-1.248-1.25-1.248zM29.989 39.713c0 .69-.559 1.248-1.25 1.248h-4.995c-.69 0-1.25-.558-1.25-1.248V34.72c0-.69.56-1.248 1.25-1.248h4.996c.69 0 1.249.558 1.249 1.248v4.992zm0-9.985c0 .69-.559 1.249-1.25 1.249h-4.995c-.69 0-1.25-.559-1.25-1.248v-4.993c0-.69.56-1.248 1.25-1.248h4.996c.69 0 1.249.558 1.249 1.248v4.992zM41.23 40.962h-7.495c-.69 0-1.249-.558-1.249-1.248s.559-1.248 1.25-1.248h7.494c.69 0 1.249.558 1.249 1.248s-.559 1.248-1.25 1.248zm7.494-4.992H33.736c-.69 0-1.249-.558-1.249-1.248s.559-1.248 1.25-1.248h14.988c.69 0 1.25.558 1.25 1.248s-.56 1.248-1.25 1.248zm-16.238-6.24c0-.69.559-1.248 1.25-1.248h7.494c.69 0 1.249.558 1.249 1.247 0 .69-.559 1.249-1.25 1.249h-7.494c-.69 0-1.249-.559-1.249-1.248zm16.238-3.745H33.736c-.69 0-1.249-.558-1.249-1.248s.559-1.248 1.25-1.248h14.988c.69 0 1.25.558 1.25 1.248s-.56 1.248-1.25 1.248zm-23.732 12.48h2.498V35.97h-2.498v2.496zm0-9.983h2.498v-2.497h-2.498v2.496zm16.755 22.464H30.72l-2.864 2.862c-.358.357-.465.893-.271 1.36.193.467.649.77 1.154.77h14.989c.505 0 .96-.303 1.154-.77.194-.467.086-1.003-.271-1.36l-2.864-2.862z"/>
    <defs>
        <linearGradient id="paint0_linear" x1="36" x2="36" y1="72" y2="0" gradientUnits="userSpaceOnUse">
            <stop stop-color="#C3FFE8"/>
            <stop offset=".997" stop-color="#F0FFF4"/>
        </linearGradient>
        <linearGradient id="paint1_linear" x1="36.234" x2="36.234" y1="55.938" y2="16" gradientUnits="userSpaceOnUse">
            <stop stop-color="#9CFFAC"/>
            <stop offset="1" stop-color="#00B59C"/>
        </linearGradient>
    </defs>
</svg>
