<svg xmlns="http://www.w3.org/2000/svg" width="72" height="72" fill="none" viewBox="0 0 72 72">
    <rect width="72" height="72" fill="url(#paint0_linear)" rx="36"/>
    <path fill="url(#paint1_linear)" d="M31.003 22.26h9.995c.69 0 1.25-.559 1.25-1.249v-2.498c0-2.067-1.682-3.747-3.75-3.747h-4.997c-2.067 0-3.748 1.68-3.748 3.747v2.498c0 .69.559 1.25 1.25 1.25zm19.99-4.996H44.62c.082.404.126.821.126 1.249v2.498c0 2.066-1.681 3.747-3.748 3.747h-9.995c-2.067 0-3.749-1.68-3.749-3.747v-2.498c0-.428.044-.845.127-1.25h-6.374c-.69 0-1.25.56-1.25 1.25v37.472c0 .69.56 1.25 1.25 1.25h29.986c.69 0 1.25-.56 1.25-1.25V18.513c0-.69-.56-1.25-1.25-1.25zM36.883 39.38l-4.997 4.997c-.244.244-.564.365-.883.365-.32 0-.64-.121-.884-.365l-2.499-2.499c-.488-.488-.488-1.278 0-1.766s1.279-.488 1.767 0l1.615 1.615 4.115-4.113c.488-.488 1.278-.488 1.766 0s.488 1.278 0 1.766zm0-9.992l-4.997 4.996c-.244.244-.564.366-.883.366-.32 0-.64-.122-.884-.366l-2.499-2.498c-.488-.488-.488-1.278 0-1.766s1.279-.488 1.767 0l1.615 1.614 4.115-4.113c.488-.488 1.278-.488 1.766 0s.488 1.279 0 1.767zm6.614 22.85h-3.749c-.69 0-1.25-.56-1.25-1.25s.56-1.249 1.25-1.249h3.749c.69 0 1.249.559 1.249 1.25 0 .69-.559 1.248-1.25 1.248zm0-9.994h-3.749c-.69 0-1.25-.558-1.25-1.249 0-.69.56-1.249 1.25-1.249h3.749c.69 0 1.249.56 1.249 1.25s-.559 1.248-1.25 1.248zm0-9.992h-3.749c-.69 0-1.25-.559-1.25-1.25 0-.69.56-1.248 1.25-1.248h3.749c.69 0 1.249.558 1.249 1.249 0 .69-.559 1.249-1.25 1.249z"/>
    <defs>
        <linearGradient id="paint0_linear" x1="36" x2="36" y1="72" y2="0" gradientUnits="userSpaceOnUse">
            <stop stop-color="#ADDCFF"/>
            <stop offset=".503" stop-color="#EAF6FF"/>
            <stop offset="1" stop-color="#EAF6FF"/>
        </linearGradient>
        <linearGradient id="paint1_linear" x1="36" x2="36" y1="57.234" y2="14.766" gradientUnits="userSpaceOnUse">
            <stop stop-color="#00C0FF"/>
            <stop offset="1" stop-color="#5558FF"/>
        </linearGradient>
    </defs>
</svg>
