<svg width="108" height="56" fill="none" xmlns="http://www.w3.org/2000/svg">
    <path d="M.065 43.297h8.587V12.826H.065v30.47zM26.498 43.82c7.525 0 12.527-3.7 12.527-9.926v-.087c0-5.702-4.427-7.966-11.51-9.49-4.337-.957-5.4-1.566-5.4-2.96v-.086c0-1.132 1.019-1.96 3.099-1.96 2.744 0 5.843 1.002 8.676 3.004l4.294-5.963c-3.365-2.656-7.481-4.049-12.749-4.049-7.436 0-11.995 4.092-11.995 9.751v.087c0 6.225 5.09 8.053 11.685 9.533 4.25 1.002 5.268 1.654 5.268 2.96v.087c0 1.306-1.24 2.09-3.586 2.09-3.585 0-6.95-1.263-10.048-3.657l-4.78 5.616c3.85 3.351 9.03 5.05 14.519 5.05zM91.16 43.906c9.561 0 16.732-7.095 16.732-15.845v-.087c0-8.75-7.082-15.758-16.643-15.758s-16.732 7.096-16.732 15.845v.087c0 8.75 7.082 15.758 16.643 15.758zm.089-7.618c-4.737 0-7.968-3.83-7.968-8.227v-.087c0-4.396 3.143-8.14 7.88-8.14 4.736 0 7.922 3.787 7.922 8.227v.087c0 4.397-3.142 8.14-7.834 8.14z" fill="#1A254F"/>
    <path d="M43.2 43.297h8.588v-7.923l3.143-3.395 7.835 11.318h10.27l-12.13-17.412 11.73-13.06H62.5L51.788 25.189V12.826h-8.587v30.47z" fill="#D71A63"/>
    <path fill-rule="evenodd" clip-rule="evenodd" d="M92.515 17.407c1.038 1.159 3.058 2.152 4.124 2.014l-1.01 2.869c-.477-.442-1.262-2.456-3.506-1.325l.392-3.558z" fill="url(#a)"/>
    <path fill-rule="evenodd" clip-rule="evenodd" d="M91.169 16.965c1.178 0 2.16.938 2.16 2.125 0 1.186-.954 2.124-2.16 2.124-1.178 0-2.16-.938-2.16-2.124 0-1.187.982-2.125 2.16-2.125z" fill="url(#b)"/>
    <path fill-rule="evenodd" clip-rule="evenodd" d="M86.26 18.952c1.374.634 2.44-.193 3.114-1.021l1.234 3.2c-.673-.166-2.048-1.186-2.974.828l-1.374-3.007z" fill="url(#c)"/>
    <path fill-rule="evenodd" clip-rule="evenodd" d="M85.502 18.841c1.263 0 2.3 1.021 2.3 2.262 0 1.242-1.037 2.262-2.3 2.262-1.262 0-2.3-1.02-2.3-2.262 0-1.24 1.038-2.262 2.3-2.262z" fill="url(#d)"/>
    <path fill-rule="evenodd" clip-rule="evenodd" d="m83.202 20.993 3.058 2.262c-.758.138-2.3.635-2.245 2.207l-2.777-.386c1.88-1.545 2.02-2.207 1.964-4.083z" fill="url(#e)"/>
    <path fill-rule="evenodd" clip-rule="evenodd" d="M80.818 25.959a1.734 1.734 0 0 1 1.991-1.38c.926.166 1.571 1.049 1.403 1.959a1.734 1.734 0 0 1-1.992 1.38c-.954-.166-1.57-1.05-1.402-1.96z" fill="url(#f)"/>
    <path fill-rule="evenodd" clip-rule="evenodd" d="M81.519 30.98c.87-1.215.42-2.842-.309-3.614l2.974-.828c-.084.634-1.29 2.4.561 3.614l-3.226.827z" fill="url(#g)"/>
    <path fill-rule="evenodd" clip-rule="evenodd" d="M81.266 31.669c.225-1.241 1.403-2.041 2.665-1.848a2.281 2.281 0 0 1 1.88 2.62c-.225 1.242-1.403 2.042-2.665 1.849-1.262-.194-2.076-1.38-1.88-2.621z" fill="#C6C6C5"/>
    <path fill-rule="evenodd" clip-rule="evenodd" d="M81.266 31.669c.225-1.241 1.403-2.041 2.665-1.848a2.281 2.281 0 0 1 1.88 2.62c-.225 1.242-1.403 2.042-2.665 1.849-1.262-.194-2.076-1.38-1.88-2.621z" fill="url(#h)"/>
    <path fill-rule="evenodd" clip-rule="evenodd" d="m83.034 34.29 2.777-2.566c0 .745.224 2.345 1.823 2.566l-.87 2.62c-1.206-2.096-1.85-2.344-3.73-2.62z" fill="url(#i)"/>
    <path fill-rule="evenodd" clip-rule="evenodd" d="M87.578 37.462a1.713 1.713 0 0 1-1.038-2.18c.337-.882 1.319-1.323 2.216-1.02a1.713 1.713 0 0 1 1.038 2.18 1.712 1.712 0 0 1-2.216 1.02z" fill="url(#j)"/>
    <path fill-rule="evenodd" clip-rule="evenodd" d="M92.74 37.655c-1.066-1.076-2.777-.883-3.675-.33l-.309-3.035c.618.193 2.188 1.655 3.731.082l.253 3.283z" fill="url(#k)"/>
    <path fill-rule="evenodd" clip-rule="evenodd" d="M93.385 38.014c-1.206-.414-1.823-1.738-1.374-2.897.42-1.186 1.767-1.793 2.945-1.351 1.206.413 1.824 1.737 1.375 2.896-.421 1.159-1.74 1.766-2.946 1.352z" fill="url(#l)"/>
    <path fill-rule="evenodd" clip-rule="evenodd" d="m96.302 36.772-2.075-3.145c.757.139 2.384.166 2.889-1.324l2.469 1.297c-2.329.828-2.665 1.38-3.283 3.172z" fill="url(#m)"/>
    <path fill-rule="evenodd" clip-rule="evenodd" d="M100.286 32.91c-.477.8-1.515 1.076-2.356.607a1.682 1.682 0 0 1-.618-2.317c.477-.8 1.515-1.076 2.357-.607.813.497 1.094 1.517.617 2.317z" fill="url(#n)"/>
    <path fill-rule="evenodd" clip-rule="evenodd" d="M101.352 27.945c-1.262.855-1.375 2.538-.954 3.503l-3.085-.22c.308-.552 2.047-1.821.729-3.587l3.31.304z" fill="url(#o)"/>
    <path fill-rule="evenodd" clip-rule="evenodd" d="M101.828 27.366c-.645 1.075-2.047 1.462-3.142.827-1.094-.634-1.486-2.014-.841-3.09.645-1.075 2.048-1.462 3.142-.827 1.122.634 1.487 2.014.841 3.09z" fill="#C6C6C5"/>
    <path fill-rule="evenodd" clip-rule="evenodd" d="M101.829 27.393c-.646 1.076-2.076 1.407-3.17.773-1.094-.635-1.43-2.042-.786-3.118.645-1.076 2.076-1.407 3.17-.772 1.066.662 1.431 2.069.786 3.117z" fill="url(#p)"/>
    <path fill-rule="evenodd" clip-rule="evenodd" d="m101.127 24.359-3.534 1.406c.28-.69.645-2.29-.758-3.034l1.656-2.124c.364 2.4.981 2.841 2.636 3.752z" fill="url(#q)"/>
    <path fill-rule="evenodd" clip-rule="evenodd" d="M98.042 19.917a1.678 1.678 0 0 1 0 2.4 1.748 1.748 0 0 1-2.44 0 1.678 1.678 0 0 1 0-2.4 1.748 1.748 0 0 1 2.44 0z" fill="url(#r)"/>
    <path fill-rule="evenodd" clip-rule="evenodd" d="M95.096 36.828s-.169-.552-.673-1.021v-.69c.056-.027.112-.027.112-.055v-.248c0-.055-.14-.083-.337-.083-.196 0-.336.028-.336.083v.248c0 .028.028.055.084.055v.69a2.58 2.58 0 0 0-.674 1.02v.028c0 .138.421.276.926.276.505 0 .898-.11.898-.303 0 .027 0 .027 0 0zm-.898-2.042c.14 0 .253.055.253.083 0 .055-.113.083-.253.083s-.252-.055-.252-.083c0-.055.112-.083.252-.083zm0 2.235c-.505 0-.785-.11-.841-.166l.028-.082c.056-.166.252-.552.617-.91l.028-.029V35.145h.28V35.862l.028.028c.365.358.562.745.618.91l.028.083c-.028.027-.28.138-.786.138z" fill="#F1EBD6"/>
    <path fill-rule="evenodd" clip-rule="evenodd" d="M94.647 36.414c-.028-.055-.224-.11-.477-.11h-.112v.055c0 .055-.056.082-.084.082-.056 0-.084-.055-.084-.082v-.028a.675.675 0 0 0-.197.083c-.112.165-.168.33-.196.386.084.055.309.11.673.11.365 0 .59-.055.674-.11-.028-.055-.085-.22-.197-.386zm-.785.358c-.028 0-.084-.027-.084-.082 0-.028.028-.083.084-.083.028 0 .084.028.084.083 0 .055-.056.082-.084.082zm.336-.082c-.028 0-.084-.028-.084-.083 0-.055.028-.083.084-.083.028 0 .085.028.085.083 0 .055-.057.083-.085.083zm.309.055c-.056 0-.084-.055-.084-.083 0-.055.056-.083.084-.083.056 0 .084.056.084.083.028.028-.028.083-.084.083z" fill="#F1EBD6"/>
    <path d="M98.855 31.614v-.083l.084-.055c.085.055.309.055.365-.386-.393.055-.449.22-.42.303-.029.028-.057.028-.057.055-.028-.082-.084-.082-.112-.082-.056 0-.084.027-.084.027s.084.083.112.22c-.42 0-.673.139-.673.553 0 .33.056.772.336.91.113.055.28-.11.393-.028.112.083.28.11.393.055.252-.138.393-.496.393-.8-.028-.662-.337-.69-.73-.69zm.197-.386c.056-.056.168-.083.168-.083l-.14.138-.169.165s.056-.138.14-.22zm.392 1.075c0 .11-.028.221-.056.36-.056.082-.112.11-.14.11.028-.056.056-.139.084-.221.056-.414-.028-.662-.196-.773l-.056-.055c.252 0 .392.11.364.58zm-.87-.468c0-.056.085-.083.169-.11a.475.475 0 0 1 .028.137h.084v-.138c.112 0 .197.055.197.11 0 .056-.113.11-.225.11s-.252-.054-.252-.11z" fill="#F1EBD6"/>
    <path fill-rule="evenodd" clip-rule="evenodd" d="M88.084 35.945s.028.027 0 0c.028.027.056 0 .084 0 .028 0 .028 0 .028.027v.138l.056.056.028-.028.028-.055v-.055l.028-.028s.028-.028.028-.055h-.028s-.028-.028-.028-.055c0-.028-.028-.028-.028-.056h-.056c-.028 0-.056-.027-.056-.027h-.113s-.028.027-.028.055v.055c.028 0 .056.028.056.028z" fill="#F1EBD6"/>
    <path fill-rule="evenodd" clip-rule="evenodd" d="M88.364 36.497c.337-.11.561-.387.561-.745a.747.747 0 0 0-.224-.524c.028-.028.056-.056.056-.11a.275.275 0 0 0-.028-.084l-.113.11-.084.084c.169.11.253.303.253.524a.677.677 0 0 1-.673.662.699.699 0 0 1-.533-.248l-.029.027-.056.055-.084.083s.028.028.084.028c.056 0 .085-.028.085-.056.14.11.28.194.476.194.028.22-.196.22-.252.275v.028c0 .055.196.083.365.083.168 0 .364-.028.364-.083v-.028c-.028-.055-.308-.082-.224-.275.056.027.056.027.056 0z" fill="#F1EBD6"/>
    <path fill-rule="evenodd" clip-rule="evenodd" d="M88.14 36.331a.587.587 0 0 0 .589-.58c0-.33-.28-.579-.59-.579a.588.588 0 0 0-.588.58c0 .33.252.579.589.579zm-.477-.497c.028 0 .028 0 .084-.027.056-.028 0-.055 0-.083 0-.027.056-.027.084-.055.028-.028-.028-.028-.028-.055-.028 0-.056 0-.056.027 0 .028 0 .028-.028.028s-.028 0-.028-.028c0-.027 0-.027.056-.055.056-.027.028-.027.028-.055 0 0-.028 0-.056-.027-.028 0 0-.028 0-.028h.056s0 .028.056 0c.028 0 .028 0 .056.028l.028.027s0 .028.028.028c0 .027.057 0 .085-.028.028-.027.028-.055.028-.055 0-.028-.028-.028-.028-.028s0-.027-.028-.055c0-.028-.028-.028-.056 0-.029 0-.029.028-.057.028 0 0 0-.028-.028-.028h-.056a.597.597 0 0 1 .365-.138c.14 0 .28.055.393.166.028.027.056.055.056.083a.59.59 0 0 1-.169.055s-.056.027-.056 0c-.028 0-.028-.028-.056-.028s-.028 0-.028.028l-.028.027h-.056c-.028.028 0 .055.028.055l.028-.027.028.027s0 .056-.028.056h-.056s-.056-.028-.056 0c0 0-.028 0-.028.027v.055s-.056.028 0 .028.056-.028.084-.028c0 0 .028-.027.056 0h.056s.028-.027.056-.027v.055l-.028.027.028.028c.028 0 .028.028.028.028s0-.028.028-.028h.056l.029.028h.028v.027c0 .028.028.028.028.028l.028-.028h.028l.028.028a.72.72 0 0 1-.14.248.513.513 0 0 1-.393.166.83.83 0 0 1-.253-.056c0-.027.028-.082.028-.082v-.138l-.056-.055h-.056c-.028 0-.028-.028-.028-.056 0 0-.028 0-.056-.027-.028 0-.028-.028-.028-.028-.028-.055-.028-.083-.028-.083zm.028.249a.602.602 0 0 1-.084-.138h.028c.028 0 .028.027.056.027s.028.083 0 .11z" fill="#F1EBD6"/>
    <path d="M91.197 18.455c-.14 0-.28.083-.365.193a.458.458 0 0 1 .253-.082c.252 0 .448.193.476.441 0 .055 0 .11-.028.165a.41.41 0 0 0 .112-.303.452.452 0 0 0-.448-.414zM91.506 20c0-.027-.028-.055-.056-.055h-.477c-.028 0-.056.027-.056.055s.028.055.056.055l.084.055H91c-.028 0-.056.028-.056.056 0 .027.028.055.056.055h.028l.084.055h-.084c-.028 0-.056.027-.056.055s.028.055.056.055h.392c.028 0 .057-.027.057-.055 0-.027-.028-.055-.057-.055h-.196l-.056-.055h.28c.029 0 .057-.028.057-.055 0-.028-.028-.056-.056-.056h-.281l-.056-.055h.337c.028-.027.056-.027.056-.055zM91.169 18.152c.028 0 .056-.028.056-.055v-.138c0-.028-.028-.055-.056-.055s-.056.027-.056.055v.138c0 .055.028.055.056.055zM91.87 18.069l-.112.11c-.028.028-.028.056 0 .056.028.027.056.027.056 0l.112-.11c.028-.028.028-.056 0-.056 0-.028-.028-.028-.056 0zM90.496 18.262c.028.028.056.028.056 0 .028-.027.028-.055 0-.055l-.113-.11c-.028-.028-.056-.028-.056 0-.028.027-.028.055 0 .055l.113.11zM91.87 19.366c-.028-.028-.056-.028-.056 0-.028.027-.028.055 0 .055l.112.11c.028.028.056.028.056 0 .028-.027.028-.055 0-.055l-.112-.11zM90.524 19.393l-.112.11c-.028.028-.028.056 0 .056.028.027.056.027.056 0l.112-.11c.028-.028.028-.056 0-.056 0-.027-.028-.027-.056 0zM90.327 18.759h-.14c-.028 0-.056.027-.056.055 0 .027.028.055.056.055h.14c.028 0 .056-.028.056-.055 0-.028-.028-.055-.056-.055zM92.207 18.731h-.14c-.029 0-.057.028-.057.055 0 .028.028.055.056.055h.14c.029 0 .057-.027.057-.055-.028-.055-.056-.055-.056-.055z" fill="#F1EBD6"/>
    <path d="M91.169 18.207a.682.682 0 0 0-.673.69c0 .055 0 .11.028.165 0 .055.056.138.084.193.14.166.42.414.364.662h.505a.434.434 0 0 1 .085-.358c.028-.028.14-.166.168-.193.112-.11.168-.276.168-.47a.732.732 0 0 0-.73-.689zm.449 1.076c-.028.027-.14.165-.169.193-.056.11-.112.193-.112.303h-.112c.028-.11.056-.413.112-.634h-.056c0 .11-.056.414-.084.552-.056-.166-.112-.47-.14-.497-.028-.055-.056-.083-.056-.083l.14.055s-.084-.165-.056-.165c.084 0 .28.083.28.083v-.221c0-.055-.084.138-.084.138l-.252-.083-.028.138s-.169-.138-.085 0c.085.166.197.58.253.717h-.084c0-.193-.169-.358-.28-.496a.848.848 0 0 1-.141-.193c-.028-.083-.056-.138-.056-.221 0-.331.252-.58.56-.58.337 0 .59.249.59.552a.479.479 0 0 1-.14.442z" fill="#F1EBD6"/>
    <path fill-rule="evenodd" clip-rule="evenodd" d="M98.996 26.235V27.062c.028.138.364.248.757.248s.701-.11.757-.248v-.8l-.729.331-.785-.358z" fill="#F1EBD6"/>
    <path fill-rule="evenodd" clip-rule="evenodd" d="M101.043 26.759c.028-.028.028-.056.028-.083 0-.028-.028-.083-.056-.083v-.69c0-.027-.028-.027-.028-.027l-.841-.359-.365-.165-1.262.552 1.262.551 1.01-.441-.73-.055h-.084c-.028.027-.084.055-.168.055-.112 0-.196-.055-.196-.11 0-.056.084-.11.196-.11.056 0 .14.027.168.054l.954.056v.662c-.028.027-.056.055-.056.082 0 .028.028.055.028.083a5.723 5.723 0 0 0-.084.469c0 .055.056 0 .056 0s.056-.055.056 0c0 .083.056 0 .056 0s.056.083.056 0c0-.055.056 0 .056 0s.056.055.056 0c-.028-.028-.084-.303-.112-.441zM96.414 20.773c.056 0 .112 0 .168-.028h.281v-.028h-.281c-.056 0-.112 0-.14.028-.084 0-.168.027-.224.027v.028h.028c.028 0 .084-.027.168-.027z" fill="#F1EBD6"/>
    <path d="M97.593 20.717h-.561v.028h.56v-.028z" fill="#F1EBD6"/>
    <path fill-rule="evenodd" clip-rule="evenodd" d="M96.19 21.186v.028c.056 0 .14-.028.225-.028.056 0 .112 0 .168-.027v-.028c-.056 0-.112 0-.168.028-.084 0-.169.027-.225.027zM96.19 21.324v.028c.056 0 .14-.028.225-.028.056 0 .112 0 .168-.027v-.028c-.056 0-.112 0-.168.028-.084 0-.169.027-.225.027z" fill="#F1EBD6"/>
    <path d="M97.593 20.993h-.561v.028h.56v-.028zM97.593 21.269h-.561v.028h.56v-.028zM97.593 21.131h-.561v.028h.56v-.028zM97.396 21.407h-.364v.028h.364v-.028zM97.593 20.855h-.561v.028h.56v-.028z" fill="#F1EBD6"/>
    <path fill-rule="evenodd" clip-rule="evenodd" d="M96.92 21.848c.055 0 .112-.027.112-.027h.7c.029 0 .029-.028.029-.028V20.58c0-.028-.028-.028-.028-.028h-.842c0-.028-.028-.083-.168-.083-.084 0-.196 0-.308.028-.14.027-.281.027-.337.055-.028 0-.028.027-.028.027v1.214c0 .028.028.028.028.028H96.779c.028.027.084.027.14.027zm0-1.103v-.138h.785v1.159h-.786v-1.021zm-.505.993c-.14 0-.253.028-.281.055v-1.159s.028-.027.084-.027c.056 0 .112-.028.197-.028.112 0 .224-.027.308-.027h.112c.028 0 .056.027.056.027v1.159s-.028-.028-.084-.028h-.112c-.056 0-.196 0-.28.028z" fill="#F1EBD6"/>
    <path fill-rule="evenodd" clip-rule="evenodd" d="M96.723 20.883h.112v-.028h-.252c-.056 0-.112 0-.197.028-.084 0-.168.027-.224.027v.028c.056 0 .14-.028.224-.028.113 0 .253-.027.337-.027zM96.807 20.993h-.112c-.084 0-.196 0-.308.028-.085 0-.169.027-.225.027v.028c.056 0 .14-.028.224-.028.113 0 .225-.027.31-.027h.111v-.028zM83.146 25.931v-.055c0-.193-.168-.331-.365-.331-.14 0-.252.083-.308.22a.42.42 0 0 1 .252-.11c.197-.027.365.11.42.276z" fill="#F1EBD6"/>
    <path fill-rule="evenodd" clip-rule="evenodd" d="m82.108 26.428-.337.358a.144.144 0 0 0 .029.22.15.15 0 0 0 .224-.027l.337-.358a.168.168 0 0 0 .028-.193l.084-.083a.57.57 0 0 0 .365.11c.308-.027.533-.276.504-.58a.537.537 0 0 0-.589-.496c-.308.028-.533.276-.505.58 0 .138.056.248.14.33l-.084.083c-.056-.027-.14 0-.196.056zm.224-.497c-.027-.248.169-.441.421-.469.253-.027.45.166.477.414.028.248-.168.441-.42.469-.253.027-.45-.166-.478-.414zM86.203 22.041c-.084.083-.308 0-.56-.193a.97.97 0 0 0 .111-.248c.14-.028.253-.083.365-.138.14.276.168.497.084.58zm-.28-.91c.056.083.112.166.14.248-.084.028-.168.083-.253.11.028-.055.056-.137.085-.22 0-.055.028-.083.028-.138zm.757-.276c.028.138-.168.331-.505.497a1.848 1.848 0 0 0-.196-.304c.028-.138.056-.248.056-.358.337-.028.589.055.645.165zm-1.01.662c-.112.028-.196.055-.308.083-.056-.055-.113-.11-.14-.166-.057-.055-.085-.11-.14-.165.027-.055.027-.138.055-.193a.506.506 0 0 0 .056-.193c.056-.028.14-.055.225-.083.056-.028.112-.028.168-.055.056.055.112.138.196.193.028.027.056.055.056.083-.028.082-.028.138-.056.22a.82.82 0 0 1-.112.276zm-.112.248a65.039 65.039 0 0 0-.084-.082c.056 0 .112-.028.168-.028-.028.028-.056.083-.084.11zm-.393.332c-.084-.028-.14-.166-.14-.36.112 0 .196-.027.308-.027.057.055.113.11.169.138-.14.193-.253.276-.337.249zm-.112-.718.056.055c.056.056.112.11.14.166-.084 0-.14.028-.224.028 0-.083.028-.166.028-.249zm.309-.855c.056.028.084.083.14.11-.028 0-.056.028-.112.028s-.085.028-.14.055c.055-.055.084-.138.112-.193zm.42-.33c.085.027.14.165.14.385-.084 0-.196.028-.28.055-.056-.055-.112-.11-.196-.165.112-.193.252-.303.336-.276zm.085.716c-.029-.027-.029-.055-.057-.082-.028-.056-.084-.083-.112-.138.056 0 .14-.028.197-.028 0 .11-.028.166-.028.248zm-1.431.58c-.028-.11.112-.276.393-.442l.168.249c-.028.11-.056.248-.056.358-.28-.027-.477-.055-.505-.165zm.589-.359c-.028-.055-.056-.11-.112-.166l.168-.082c0 .027-.028.082-.028.11-.028.055-.028.11-.028.138zm-.28-.883c.084-.082.308.028.56.193a1.013 1.013 0 0 0-.14.304c-.112.027-.196.083-.28.138-.197-.304-.253-.552-.14-.635zm2.075.552c-.056-.166-.364-.276-.813-.248 0-.304-.056-.524-.197-.552-.14-.055-.336.11-.505.386-.308-.248-.56-.358-.7-.248-.141.11-.085.441.111.8-.336.193-.533.441-.476.58.056.137.28.22.617.22 0 .303.056.497.196.552.14.055.309-.11.477-.359.308.248.589.331.701.22.14-.11.084-.386-.112-.716.505-.194.757-.442.701-.635z" fill="#F1EBD6"/>
    <path fill-rule="evenodd" clip-rule="evenodd" d="M85.53 21.02c-.084-.027-.196.028-.224.111-.028.083.028.193.112.22.084.028.196-.027.224-.11.028-.11-.028-.193-.112-.22zM83.427 32.855l-.028-.083-.14.028.953-1.269c.056.055.084.11.084.138l-.87 1.186zm-.337.11s-.112.083-.224.083c-.056 0-.028-.248-.028-.248h.084c.028 0 .056.028.084.055.056.028.084.055.084.083.028.028.028.028 0 .028zm.673-1.682c.056 0 .112.027.169.055l-.954 1.241v-.165h-.084l.87-1.131zm-.56 1.434v-.138c0-.027-.085 0-.141.028l.954-1.241c.028 0 .056.027.084.055.028.027.056.027.056.055l-.954 1.241zm1.093-1.544c-.224-.138-.42-.166-.449-.11l-.056.082-.112.138-.87 1.158-.028.028s-.056.248-.028.469c0 .11.028.193.057.22.028.028.168-.027.168-.027l.477-.165.897-1.187.028-.027.085-.138.056-.083c.028-.027-.028-.22-.225-.358z" fill="#F1EBD6"/>
    <path d="M99.865 28.193c-1.038 0-1.907-.827-1.907-1.876 0-1.02.841-1.876 1.907-1.876s1.908.828 1.908 1.876c0 1.021-.87 1.876-1.908 1.876zm0-3.614c-.982 0-1.767.773-1.767 1.738 0 .966.785 1.738 1.767 1.738.982 0 1.767-.772 1.767-1.738.028-.965-.785-1.738-1.767-1.738zM91.197 20.938a1.834 1.834 0 0 1-1.851-1.82c0-1.021.841-1.821 1.851-1.821 1.038 0 1.852.827 1.852 1.82 0 .993-.842 1.821-1.852 1.821zm0-3.559c-.954 0-1.74.773-1.74 1.71 0 .939.786 1.711 1.74 1.711s1.74-.772 1.74-1.71-.786-1.71-1.74-1.71zM85.502 22.952a1.834 1.834 0 0 1-1.851-1.821c0-1.02.841-1.82 1.851-1.82 1.038 0 1.852.827 1.852 1.82 0 1.02-.814 1.82-1.852 1.82zm0-3.531c-.953 0-1.739.772-1.739 1.71s.785 1.71 1.74 1.71c.953 0 1.739-.772 1.739-1.71s-.786-1.71-1.74-1.71zM83.623 33.959a1.834 1.834 0 0 1-1.852-1.821c0-1.02.842-1.82 1.852-1.82 1.037 0 1.85.827 1.85 1.82 0 .993-.84 1.82-1.85 1.82zm0-3.559c-.954 0-1.74.772-1.74 1.71s.786 1.71 1.74 1.71c.953 0 1.739-.772 1.739-1.71s-.786-1.71-1.74-1.71zM94.198 37.738a1.834 1.834 0 0 1-1.851-1.82c0-1.021.841-1.821 1.851-1.821 1.038 0 1.852.827 1.852 1.82 0 1.02-.842 1.82-1.852 1.82zm0-3.559c-.954 0-1.74.773-1.74 1.71 0 .939.786 1.711 1.74 1.711s1.74-.772 1.74-1.71-.786-1.71-1.74-1.71zM96.92 22.538a1.366 1.366 0 0 1-1.375-1.352c0-.745.617-1.352 1.374-1.352.758 0 1.375.607 1.375 1.352 0 .745-.617 1.352-1.375 1.352zm0-2.593c-.702 0-1.235.552-1.235 1.214 0 .662.561 1.213 1.234 1.213.702 0 1.235-.551 1.235-1.213s-.561-1.214-1.235-1.214zM98.827 33.517c-.814 0-1.487-.662-1.487-1.462 0-.8.673-1.462 1.487-1.462.813 0 1.486.662 1.486 1.462 0 .828-.673 1.462-1.486 1.462zm0-2.786c-.758 0-1.375.607-1.375 1.352 0 .745.617 1.352 1.375 1.352.757 0 1.374-.607 1.374-1.352 0-.745-.617-1.352-1.374-1.352zM82.473 27.586a1.366 1.366 0 0 1-1.375-1.351c0-.745.617-1.352 1.375-1.352.757 0 1.374.607 1.374 1.352 0 .744-.617 1.351-1.374 1.351zm0-2.593c-.702 0-1.235.552-1.235 1.214 0 .69.561 1.214 1.235 1.214.701 0 1.234-.552 1.234-1.214 0-.662-.561-1.214-1.234-1.214zM88.195 37.269a1.366 1.366 0 0 1-1.374-1.352c0-.745.617-1.351 1.374-1.351.758 0 1.375.606 1.375 1.351.028.745-.59 1.352-1.375 1.352zm0-2.593c-.7 0-1.234.552-1.234 1.214 0 .69.561 1.213 1.234 1.213.702 0 1.235-.551 1.235-1.213.028-.662-.533-1.214-1.235-1.214z" fill="#F1EBD6"/>
    <defs>
        <linearGradient id="a" x1="96.902" y1="20.858" x2="92.92" y2="19.412" gradientUnits="userSpaceOnUse">
            <stop stop-color="#D8A103"/>
            <stop offset=".223" stop-color="#DC9506"/>
            <stop offset=".621" stop-color="#E8760E"/>
            <stop offset=".739" stop-color="#EC6C11"/>
            <stop offset="1" stop-color="#C65317"/>
        </linearGradient>
        <linearGradient id="b" x1="92.199" y1="18.518" x2="87.96" y2="20.922" gradientUnits="userSpaceOnUse">
            <stop stop-color="#008E82"/>
            <stop offset=".136" stop-color="#008E82"/>
            <stop offset=".452" stop-color="#008282"/>
            <stop offset=".734" stop-color="#007483"/>
            <stop offset="1" stop-color="#03546B"/>
        </linearGradient>
        <linearGradient id="c" x1="91.966" y1="18.106" x2="87.726" y2="20.51" gradientUnits="userSpaceOnUse">
            <stop stop-color="#008E82"/>
            <stop offset=".388" stop-color="#008282"/>
            <stop offset=".734" stop-color="#007483"/>
            <stop offset="1" stop-color="#03546B"/>
        </linearGradient>
        <linearGradient id="d" x1="86.245" y1="20.212" x2="82.216" y2="25.291" gradientUnits="userSpaceOnUse">
            <stop stop-color="#EC6C11"/>
            <stop offset="1" stop-color="#BE1B18"/>
        </linearGradient>
        <linearGradient id="e" x1="86.279" y1="20.24" x2="82.25" y2="25.318" gradientUnits="userSpaceOnUse">
            <stop stop-color="#EC6C11"/>
            <stop offset="1" stop-color="#BE1B18"/>
        </linearGradient>
        <linearGradient id="f" x1="82.451" y1="25.217" x2="82.658" y2="29.892" gradientUnits="userSpaceOnUse">
            <stop stop-color="#93C01F"/>
            <stop offset="1" stop-color="#39A935"/>
        </linearGradient>
        <linearGradient id="g" x1="82.822" y1="25.2" x2="83.029" y2="29.876" gradientUnits="userSpaceOnUse">
            <stop stop-color="#93C01F"/>
            <stop offset="1" stop-color="#39A935"/>
        </linearGradient>
        <linearGradient id="h" x1="82.908" y1="31.362" x2="86.816" y2="35.892" gradientUnits="userSpaceOnUse">
            <stop stop-color="#008E82"/>
            <stop offset=".136" stop-color="#008E82"/>
            <stop offset=".452" stop-color="#008282"/>
            <stop offset=".734" stop-color="#007483"/>
            <stop offset="1" stop-color="#03546B"/>
        </linearGradient>
        <linearGradient id="i" x1="82.939" y1="31.336" x2="86.847" y2="35.865" gradientUnits="userSpaceOnUse">
            <stop stop-color="#008E82"/>
            <stop offset=".136" stop-color="#008E82"/>
            <stop offset=".452" stop-color="#008282"/>
            <stop offset=".734" stop-color="#007483"/>
            <stop offset="1" stop-color="#03546B"/>
        </linearGradient>
        <linearGradient id="j" x1="87.216" y1="35.953" x2="91.798" y2="35.605" gradientUnits="userSpaceOnUse">
            <stop stop-color="#D8A103"/>
            <stop offset=".223" stop-color="#DC9506"/>
            <stop offset=".621" stop-color="#E8760E"/>
            <stop offset=".739" stop-color="#EC6C11"/>
            <stop offset="1" stop-color="#C65317"/>
        </linearGradient>
        <linearGradient id="k" x1="87.236" y1="36.229" x2="91.818" y2="35.881" gradientUnits="userSpaceOnUse">
            <stop stop-color="#D8A103"/>
            <stop offset=".223" stop-color="#DC9506"/>
            <stop offset=".621" stop-color="#E8760E"/>
            <stop offset=".739" stop-color="#EC6C11"/>
            <stop offset="1" stop-color="#C65317"/>
        </linearGradient>
        <linearGradient id="l" x1="92.755" y1="36.985" x2="97.618" y2="33.115" gradientUnits="userSpaceOnUse">
            <stop stop-color="#93C01F"/>
            <stop offset="1" stop-color="#39A935"/>
        </linearGradient>
        <linearGradient id="m" x1="92.823" y1="37.071" x2="97.686" y2="33.201" gradientUnits="userSpaceOnUse">
            <stop stop-color="#93C01F"/>
            <stop offset="1" stop-color="#39A935"/>
        </linearGradient>
        <linearGradient id="n" x1="98.493" y1="33.553" x2="99.489" y2="28.618" gradientUnits="userSpaceOnUse">
            <stop stop-color="#EC6C11"/>
            <stop offset="1" stop-color="#BE1B18"/>
        </linearGradient>
        <linearGradient id="o" x1="98.499" y1="33.554" x2="99.494" y2="28.619" gradientUnits="userSpaceOnUse">
            <stop stop-color="#EC6C11"/>
            <stop offset="1" stop-color="#BE1B18"/>
        </linearGradient>
        <linearGradient id="p" x1="100.332" y1="27.849" x2="98.463" y2="21.43" gradientUnits="userSpaceOnUse">
            <stop stop-color="#008E82"/>
            <stop offset=".136" stop-color="#008E82"/>
            <stop offset=".452" stop-color="#008282"/>
            <stop offset=".734" stop-color="#007483"/>
            <stop offset="1" stop-color="#03546B"/>
        </linearGradient>
        <linearGradient id="q" x1="100.217" y1="27.894" x2="98.341" y2="21.45" gradientUnits="userSpaceOnUse">
            <stop stop-color="#008E82"/>
            <stop offset=".136" stop-color="#008E82"/>
            <stop offset=".452" stop-color="#008282"/>
            <stop offset=".734" stop-color="#007483"/>
            <stop offset="1" stop-color="#03546B"/>
        </linearGradient>
        <linearGradient id="r" x1="96.814" y1="21.1" x2="92.832" y2="19.654" gradientUnits="userSpaceOnUse">
            <stop stop-color="#D8A103"/>
            <stop offset=".223" stop-color="#DC9506"/>
            <stop offset=".621" stop-color="#E8760E"/>
            <stop offset=".739" stop-color="#EC6C11"/>
            <stop offset="1" stop-color="#C65317"/>
        </linearGradient>
    </defs>
</svg>
