<svg width="189" height="124" fill="none" xmlns="http://www.w3.org/2000/svg">
    <path d="M31.214 109.785h-.481l1.226 4.107a.96.96 0 0 1-.107.79.764.764 0 0 1-.638.364h-3.352V124h-2.311v-8.954h-3.765a.764.764 0 0 1-.638-.364.96.96 0 0 1-.107-.79l1.226-4.107h-.481a.773.773 0 0 1-.668-.416.964.964 0 0 1-.035-.853l2.574-5.747h-.3a.77.77 0 0 1-.668-.416.964.964 0 0 1-.035-.853l3.143-7.015c.133-.297.405-.485.702-.485h.001c.297 0 .57.188.702.484l3.145 7.02a.965.965 0 0 1-.037.851.772.772 0 0 1-.667.415h-.3l2.574 5.746a.964.964 0 0 1-.035.853.773.773 0 0 1-.668.416z" fill="url(#a)"/>
    <path d="M170.214 109.785h-.481l1.226 4.107c.08.267.04.562-.107.79a.766.766 0 0 1-.638.364h-3.352V124h-2.311v-8.954h-3.765a.763.763 0 0 1-.638-.364.96.96 0 0 1-.107-.79l1.226-4.107h-.481a.772.772 0 0 1-.668-.416.962.962 0 0 1-.035-.853l2.574-5.747h-.3a.77.77 0 0 1-.668-.416.962.962 0 0 1-.035-.853l3.143-7.015c.133-.297.405-.485.702-.485h.001c.297 0 .569.188.702.484l3.145 7.02a.961.961 0 0 1-.037.851.77.77 0 0 1-.667.415h-.3l2.574 5.746a.962.962 0 0 1-.035.853.772.772 0 0 1-.668.416z" fill="url(#b)"/>
    <path d="M24.071 113.491h-.568l1.448 4.031a.807.807 0 0 1-.127.775.954.954 0 0 1-.753.358h-3.96V124h-2.733v-5.345h-4.45a.954.954 0 0 1-.753-.358.807.807 0 0 1-.127-.775l1.45-4.031h-.57a.947.947 0 0 1-.789-.409.804.804 0 0 1-.04-.837l3.041-5.639h-.354a.949.949 0 0 1-.79-.408.804.804 0 0 1-.04-.837l3.713-6.885A.938.938 0 0 1 18.5 98h.001c.35 0 .673.184.83.475l3.717 6.889a.805.805 0 0 1-.044.835.947.947 0 0 1-.789.407h-.354l3.042 5.64a.805.805 0 0 1-.041.837.949.949 0 0 1-.79.408z" fill="url(#c)"/>
    <path d="M181.071 113.491h-.568l1.448 4.031a.805.805 0 0 1-.126.775.955.955 0 0 1-.754.358h-3.961V124h-2.732v-5.345h-4.449a.954.954 0 0 1-.754-.358.808.808 0 0 1-.127-.775l1.449-4.031h-.568a.948.948 0 0 1-.79-.409.804.804 0 0 1-.041-.837l3.042-5.639h-.354a.95.95 0 0 1-.79-.408.804.804 0 0 1-.041-.837l3.714-6.885a.938.938 0 0 1 .83-.476h.001a.94.94 0 0 1 .83.475l3.717 6.889a.805.805 0 0 1-.044.835.948.948 0 0 1-.789.407h-.354l3.042 5.64a.804.804 0 0 1-.041.837.95.95 0 0 1-.79.408z" fill="url(#d)"/>
    <path d="M1 122a1 1 0 0 0 0 2v-2zm159.842 2a1 1 0 1 0 0-2v2zm10.087-2a1 1 0 0 0 0 2v-2zM188 124a1 1 0 0 0 0-2v2zM1 124h159.842v-2H1v2zm169.929 0H188v-2h-17.071v2z" fill="url(#e)"/>
    <path d="M112.211 29.666a2.868 2.868 0 0 1 2.868 2.868V118" fill="#FFDA2D"/>
    <path fill-rule="evenodd" clip-rule="evenodd" d="M92.846 118H70.928V32.534a2.868 2.868 0 0 1 2.868-2.868h38.416a2.868 2.868 0 0 1 2.868 2.868v21.73h29.109a2.721 2.721 0 0 1 2.721 2.721v58.293a2.722 2.722 0 0 1-2.721 2.722H92.846zm-51.036 0h29.117V54.264H41.81a2.721 2.721 0 0 0-2.721 2.721v58.294A2.721 2.721 0 0 0 41.81 118z" fill="url(#f)"/>
    <path d="M92.955 81.343c-6.387 0-11.564 5.176-11.564 11.563V118h23.129V92.907c0-6.387-5.178-11.564-11.565-11.564z" fill="#293939"/>
    <path d="m92.955 81.343-.11.002V118h11.675V92.907c0-6.387-5.178-11.564-11.565-11.564z" fill="#293939"/>
    <path fill-rule="evenodd" clip-rule="evenodd" d="M92.846 69.444h-.017c-5.726 0-10.368-4.642-10.368-10.368 0-5.727 4.642-10.369 10.368-10.369 5.235 0 9.563 3.88 10.268 8.919a10.618 10.618 0 0 1 .101 1.45c0 5.721-4.634 10.36-10.352 10.369zM52.684 82.24h4.473c.643 0 1.164-.52 1.164-1.164V66.602c0-.643-.52-1.164-1.163-1.164h-4.474c-.643 0-1.163.521-1.163 1.164v14.474c0 .643.52 1.164 1.163 1.164zm0 24.565h4.473c.643 0 1.164-.52 1.164-1.163V91.167c0-.642-.52-1.163-1.163-1.163h-4.474c-.643 0-1.163.52-1.163 1.163v14.475c0 .642.52 1.163 1.163 1.163zm80.375-24.565h-4.474a1.164 1.164 0 0 1-1.163-1.164V66.602c0-.643.521-1.164 1.163-1.164h4.474c.643 0 1.164.521 1.164 1.164v14.474c0 .643-.521 1.164-1.164 1.164zm-4.474 24.565h4.474c.643 0 1.164-.52 1.164-1.163V91.167c0-.642-.521-1.163-1.164-1.163h-4.474c-.642 0-1.163.52-1.163 1.163v14.475c0 .642.521 1.163 1.163 1.163z" fill="url(#g)"/>
    <path d="M92.5 30c1.106 0 2-.894 2-2v-8.998h17.995a1.998 1.998 0 0 0 1.413-3.413l-6.584-5.584 6.584-4.584a1.998 1.998 0 0 0-1.413-3.413H92.5c-1.105 0-1.999.894-1.999 2V28c0 1.106.894 2 2 2z" fill="#FFBD00"/>
    <path d="M128.091 33.986 93.777 23.74c-.002 0-.777-.335-1.855-.012l-34.355 10.26a3.168 3.168 0 0 0 1.813 6.07l33.449-9.988 33.449 9.989a3.164 3.164 0 0 0 3.942-2.13 3.168 3.168 0 0 0-2.129-3.941z" fill="#FF4B00"/>
    <path d="M128.091 33.986 93.777 23.74c-.002 0-.382-.153-.931-.153v6.488l33.432 9.984a3.169 3.169 0 0 0 1.813-6.071z" fill="#F80000"/>
    <defs>
        <linearGradient id="a" x1="18.643" y1="138.15" x2="18.643" y2="100.656" gradientUnits="userSpaceOnUse">
            <stop stop-color="#9CFFAC"/>
            <stop offset="1" stop-color="#00B59C"/>
        </linearGradient>
        <linearGradient id="b" x1="157.643" y1="138.15" x2="157.643" y2="100.656" gradientUnits="userSpaceOnUse">
            <stop stop-color="#9CFFAC"/>
            <stop offset="1" stop-color="#00B59C"/>
        </linearGradient>
        <linearGradient id="c" x1="9.215" y1="141.328" x2="9.215" y2="104.532" gradientUnits="userSpaceOnUse">
            <stop stop-color="#9CFFAC"/>
            <stop offset="1" stop-color="#00B59C"/>
        </linearGradient>
        <linearGradient id="d" x1="166.215" y1="141.328" x2="166.215" y2="104.532" gradientUnits="userSpaceOnUse">
            <stop stop-color="#9CFFAC"/>
            <stop offset="1" stop-color="#00B59C"/>
        </linearGradient>
        <linearGradient id="e" x1="94.5" y1="123" x2="184.896" y2="123" gradientUnits="userSpaceOnUse">
            <stop stop-color="#FE5C01"/>
            <stop offset="1" stop-color="#FFDE01"/>
        </linearGradient>
        <linearGradient id="f" x1="93" y1="118" x2="93" y2="29.666" gradientUnits="userSpaceOnUse">
            <stop stop-color="#FD5900"/>
            <stop offset="1" stop-color="#FFDE00"/>
        </linearGradient>
        <linearGradient id="g" x1="92.871" y1="106.805" x2="92.871" y2="48.707" gradientUnits="userSpaceOnUse">
            <stop stop-color="#FFE59A"/>
            <stop offset="1" stop-color="#FFFFD5"/>
        </linearGradient>
    </defs>
</svg>
